solid OpenSCAD_Model
  facet normal -1 0 0
    outer loop
      vertex 11.4 1 1
      vertex 11.4 11.4 20
      vertex 11.4 11.4 1
    endloop
  endfacet
  facet normal -1 -0 0
    outer loop
      vertex 11.4 11.4 20
      vertex 11.4 1 1
      vertex 11.4 1 20
    endloop
  endfacet
  facet normal -0 0 1
    outer loop
      vertex 1 12.4 20
      vertex 11.4 11.4 20
      vertex 11.4 12.4 20
    endloop
  endfacet
  facet normal 0 0 1
    outer loop
      vertex 11.4 11.4 20
      vertex 1 12.4 20
      vertex 1 11.4 20
    endloop
  endfacet
  facet normal -0 0 1
    outer loop
      vertex 12.4 12.4 20
      vertex 22.8 11.4 20
      vertex 22.8 12.4 20
    endloop
  endfacet
  facet normal 0 0 1
    outer loop
      vertex 22.8 11.4 20
      vertex 12.4 12.4 20
      vertex 12.4 11.4 20
    endloop
  endfacet
  facet normal 0 0 1
    outer loop
      vertex 22.8 12.4 20
      vertex 23.8 23.8 20
      vertex 22.8 22.8 20
    endloop
  endfacet
  facet normal 0 0 1
    outer loop
      vertex 23.8 23.8 20
      vertex 12.4 22.8 20
      vertex 22.8 22.8 20
    endloop
  endfacet
  facet normal 0 0 1
    outer loop
      vertex 11.4 12.4 20
      vertex 12.4 12.4 20
      vertex 12.4 22.8 20
    endloop
  endfacet
  facet normal 0 0 1
    outer loop
      vertex 12.4 12.4 20
      vertex 11.4 12.4 20
      vertex 12.4 11.4 20
    endloop
  endfacet
  facet normal 0 0 1
    outer loop
      vertex 11.4 12.4 20
      vertex 12.4 22.8 20
      vertex 11.4 22.8 20
    endloop
  endfacet
  facet normal 0 0 1
    outer loop
      vertex 23.8 23.8 20
      vertex 11.4 22.8 20
      vertex 12.4 22.8 20
    endloop
  endfacet
  facet normal -0 0 1
    outer loop
      vertex 0 23.8 20
      vertex 11.4 22.8 20
      vertex 23.8 23.8 20
    endloop
  endfacet
  facet normal 0 0 1
    outer loop
      vertex 0 23.8 20
      vertex 1 12.4 20
      vertex 1 22.8 20
    endloop
  endfacet
  facet normal 0 0 1
    outer loop
      vertex 1 12.4 20
      vertex 0 23.8 20
      vertex 1 11.4 20
    endloop
  endfacet
  facet normal 0 0 1
    outer loop
      vertex 0 0 20
      vertex 1 11.4 20
      vertex 0 23.8 20
    endloop
  endfacet
  facet normal 0 0 1
    outer loop
      vertex 11.4 22.8 20
      vertex 0 23.8 20
      vertex 1 22.8 20
    endloop
  endfacet
  facet normal 0 0 1
    outer loop
      vertex 23.8 23.8 20
      vertex 22.8 12.4 20
      vertex 23.8 0 20
    endloop
  endfacet
  facet normal -0 0 1
    outer loop
      vertex 22.8 11.4 20
      vertex 23.8 0 20
      vertex 22.8 12.4 20
    endloop
  endfacet
  facet normal -0 0 1
    outer loop
      vertex 22.8 1 20
      vertex 23.8 0 20
      vertex 22.8 11.4 20
    endloop
  endfacet
  facet normal -0 0 1
    outer loop
      vertex 12.4 1 20
      vertex 23.8 0 20
      vertex 22.8 1 20
    endloop
  endfacet
  facet normal 0 0 1
    outer loop
      vertex 11.4 11.4 20
      vertex 12.4 11.4 20
      vertex 11.4 12.4 20
    endloop
  endfacet
  facet normal 0 0 1
    outer loop
      vertex 12.4 11.4 20
      vertex 11.4 11.4 20
      vertex 12.4 1 20
    endloop
  endfacet
  facet normal 0 0 1
    outer loop
      vertex 11.4 1 20
      vertex 12.4 1 20
      vertex 11.4 11.4 20
    endloop
  endfacet
  facet normal -0 0 1
    outer loop
      vertex 11.4 1 20
      vertex 23.8 0 20
      vertex 12.4 1 20
    endloop
  endfacet
  facet normal 0 0 1
    outer loop
      vertex 0 0 20
      vertex 11.4 1 20
      vertex 1 1 20
    endloop
  endfacet
  facet normal 0 0 1
    outer loop
      vertex 11.4 1 20
      vertex 0 0 20
      vertex 23.8 0 20
    endloop
  endfacet
  facet normal 0 0 1
    outer loop
      vertex 1 11.4 20
      vertex 0 0 20
      vertex 1 1 20
    endloop
  endfacet
  facet normal -0 0 1
    outer loop
      vertex 1 11.4 1
      vertex 11.4 1 1
      vertex 11.4 11.4 1
    endloop
  endfacet
  facet normal 0 0 1
    outer loop
      vertex 11.4 1 1
      vertex 1 11.4 1
      vertex 1 1 1
    endloop
  endfacet
  facet normal 1 -0 0
    outer loop
      vertex 1 1 20
      vertex 1 11.4 1
      vertex 1 11.4 20
    endloop
  endfacet
  facet normal 1 0 0
    outer loop
      vertex 1 11.4 1
      vertex 1 1 20
      vertex 1 1 1
    endloop
  endfacet
  facet normal 0 -1 0
    outer loop
      vertex 1 11.4 1
      vertex 11.4 11.4 20
      vertex 1 11.4 20
    endloop
  endfacet
  facet normal 0 -1 -0
    outer loop
      vertex 11.4 11.4 20
      vertex 1 11.4 1
      vertex 11.4 11.4 1
    endloop
  endfacet
  facet normal 0 1 -0
    outer loop
      vertex 11.4 1 1
      vertex 1 1 20
      vertex 11.4 1 20
    endloop
  endfacet
  facet normal 0 1 0
    outer loop
      vertex 1 1 20
      vertex 11.4 1 1
      vertex 1 1 1
    endloop
  endfacet
  facet normal -1 0 0
    outer loop
      vertex 22.8 1 1
      vertex 22.8 11.4 20
      vertex 22.8 11.4 1
    endloop
  endfacet
  facet normal -1 -0 0
    outer loop
      vertex 22.8 11.4 20
      vertex 22.8 1 1
      vertex 22.8 1 20
    endloop
  endfacet
  facet normal -0 0 1
    outer loop
      vertex 12.4 11.4 1
      vertex 22.8 1 1
      vertex 22.8 11.4 1
    endloop
  endfacet
  facet normal 0 0 1
    outer loop
      vertex 22.8 1 1
      vertex 12.4 11.4 1
      vertex 12.4 1 1
    endloop
  endfacet
  facet normal 1 -0 0
    outer loop
      vertex 12.4 1 20
      vertex 12.4 11.4 1
      vertex 12.4 11.4 20
    endloop
  endfacet
  facet normal 1 0 0
    outer loop
      vertex 12.4 11.4 1
      vertex 12.4 1 20
      vertex 12.4 1 1
    endloop
  endfacet
  facet normal 0 -1 0
    outer loop
      vertex 12.4 11.4 1
      vertex 22.8 11.4 20
      vertex 12.4 11.4 20
    endloop
  endfacet
  facet normal 0 -1 -0
    outer loop
      vertex 22.8 11.4 20
      vertex 12.4 11.4 1
      vertex 22.8 11.4 1
    endloop
  endfacet
  facet normal 0 1 -0
    outer loop
      vertex 22.8 1 1
      vertex 12.4 1 20
      vertex 22.8 1 20
    endloop
  endfacet
  facet normal 0 1 0
    outer loop
      vertex 12.4 1 20
      vertex 22.8 1 1
      vertex 12.4 1 1
    endloop
  endfacet
  facet normal -1 0 0
    outer loop
      vertex 11.4 12.4 1
      vertex 11.4 22.8 20
      vertex 11.4 22.8 1
    endloop
  endfacet
  facet normal -1 -0 0
    outer loop
      vertex 11.4 22.8 20
      vertex 11.4 12.4 1
      vertex 11.4 12.4 20
    endloop
  endfacet
  facet normal -0 0 1
    outer loop
      vertex 1 22.8 1
      vertex 11.4 12.4 1
      vertex 11.4 22.8 1
    endloop
  endfacet
  facet normal 0 0 1
    outer loop
      vertex 11.4 12.4 1
      vertex 1 22.8 1
      vertex 1 12.4 1
    endloop
  endfacet
  facet normal 1 -0 0
    outer loop
      vertex 1 12.4 20
      vertex 1 22.8 1
      vertex 1 22.8 20
    endloop
  endfacet
  facet normal 1 0 0
    outer loop
      vertex 1 22.8 1
      vertex 1 12.4 20
      vertex 1 12.4 1
    endloop
  endfacet
  facet normal 0 -1 0
    outer loop
      vertex 1 22.8 1
      vertex 11.4 22.8 20
      vertex 1 22.8 20
    endloop
  endfacet
  facet normal 0 -1 -0
    outer loop
      vertex 11.4 22.8 20
      vertex 1 22.8 1
      vertex 11.4 22.8 1
    endloop
  endfacet
  facet normal 0 1 -0
    outer loop
      vertex 11.4 12.4 1
      vertex 1 12.4 20
      vertex 11.4 12.4 20
    endloop
  endfacet
  facet normal 0 1 0
    outer loop
      vertex 1 12.4 20
      vertex 11.4 12.4 1
      vertex 1 12.4 1
    endloop
  endfacet
  facet normal -1 0 0
    outer loop
      vertex 22.8 12.4 1
      vertex 22.8 22.8 20
      vertex 22.8 22.8 1
    endloop
  endfacet
  facet normal -1 -0 0
    outer loop
      vertex 22.8 22.8 20
      vertex 22.8 12.4 1
      vertex 22.8 12.4 20
    endloop
  endfacet
  facet normal -0 0 1
    outer loop
      vertex 12.4 22.8 1
      vertex 22.8 12.4 1
      vertex 22.8 22.8 1
    endloop
  endfacet
  facet normal 0 0 1
    outer loop
      vertex 22.8 12.4 1
      vertex 12.4 22.8 1
      vertex 12.4 12.4 1
    endloop
  endfacet
  facet normal 1 -0 0
    outer loop
      vertex 12.4 12.4 20
      vertex 12.4 22.8 1
      vertex 12.4 22.8 20
    endloop
  endfacet
  facet normal 1 0 0
    outer loop
      vertex 12.4 22.8 1
      vertex 12.4 12.4 20
      vertex 12.4 12.4 1
    endloop
  endfacet
  facet normal 0 -1 0
    outer loop
      vertex 12.4 22.8 1
      vertex 22.8 22.8 20
      vertex 12.4 22.8 20
    endloop
  endfacet
  facet normal 0 -1 -0
    outer loop
      vertex 22.8 22.8 20
      vertex 12.4 22.8 1
      vertex 22.8 22.8 1
    endloop
  endfacet
  facet normal 0 1 -0
    outer loop
      vertex 22.8 12.4 1
      vertex 12.4 12.4 20
      vertex 22.8 12.4 20
    endloop
  endfacet
  facet normal 0 1 0
    outer loop
      vertex 12.4 12.4 20
      vertex 22.8 12.4 1
      vertex 12.4 12.4 1
    endloop
  endfacet
  facet normal 1 -0 0
    outer loop
      vertex 23.8 0 20
      vertex 23.8 23.8 0
      vertex 23.8 23.8 20
    endloop
  endfacet
  facet normal 1 0 0
    outer loop
      vertex 23.8 23.8 0
      vertex 23.8 0 20
      vertex 23.8 0 0
    endloop
  endfacet
  facet normal 0 0 -1
    outer loop
      vertex 0 0 0
      vertex 23.8 23.8 0
      vertex 23.8 0 0
    endloop
  endfacet
  facet normal -0 0 -1
    outer loop
      vertex 23.8 23.8 0
      vertex 0 0 0
      vertex 0 23.8 0
    endloop
  endfacet
  facet normal -1 0 0
    outer loop
      vertex 0 0 0
      vertex 0 23.8 20
      vertex 0 23.8 0
    endloop
  endfacet
  facet normal -1 -0 0
    outer loop
      vertex 0 23.8 20
      vertex 0 0 0
      vertex 0 0 20
    endloop
  endfacet
  facet normal 0 1 -0
    outer loop
      vertex 23.8 23.8 0
      vertex 0 23.8 20
      vertex 23.8 23.8 20
    endloop
  endfacet
  facet normal 0 1 0
    outer loop
      vertex 0 23.8 20
      vertex 23.8 23.8 0
      vertex 0 23.8 0
    endloop
  endfacet
  facet normal 0 -1 0
    outer loop
      vertex 0 0 0
      vertex 23.8 0 20
      vertex 0 0 20
    endloop
  endfacet
  facet normal 0 -1 -0
    outer loop
      vertex 23.8 0 20
      vertex 0 0 0
      vertex 23.8 0 0
    endloop
  endfacet
endsolid OpenSCAD_Model
